<?xml version="1.0" standalone="no"?>
<!DOCTYPE svg PUBLIC "-//W3C//DTD SVG 20010904//EN"
 "http://www.w3.org/TR/2001/REC-SVG-20010904/DTD/svg10.dtd">
<svg version="1.0" xmlns="http://www.w3.org/2000/svg"
 width="640.000000pt" height="640.000000pt" viewBox="0 0 640.000000 640.000000"
 preserveAspectRatio="xMidYMid meet">
<g transform="translate(0.000000,640.000000) scale(0.100000,-0.100000)" fill="#000000" stroke="none">
<path d="M3438 5093 c-42 -44 -98 -145 -123 -220 -15 -48 -19 -53 -53 -58 -20
-4 -50 -11 -66 -16 -51 -16 -150 -11 -172 9 -34 31 -91 62 -141 77 -42 12
-174 35 -202 35 -11 0 11 -101 35 -156 41 -94 86 -184 94 -189 6 -4 10 -30 10
-58 0 -109 -90 -227 -237 -308 l-62 -35 27 -41 c35 -55 86 -83 151 -83 l51 0
0 -57 c0 -67 -12 -85 -139 -216 -47 -48 -87 -91 -90 -96 -3 -4 -37 -32 -76
-61 -123 -92 -243 -202 -300 -275 -16 -21 -35 -43 -40 -49 -38 -39 -177 -237
-207 -293 -88 -167 -128 -323 -128 -496 0 -45 -5 -145 -11 -222 -9 -120 -8
-154 7 -235 16 -94 45 -170 64 -170 6 0 10 -7 10 -16 0 -8 30 -45 67 -80 49
-48 90 -77 157 -109 106 -50 179 -70 340 -90 64 -8 121 -17 127 -21 6 -3 93
-5 194 -5 101 1 212 -3 247 -8 35 -5 106 -15 158 -21 52 -6 167 -26 255 -45
197 -41 436 -82 531 -91 86 -8 164 2 164 20 0 8 17 16 43 19 89 13 341 106
415 155 l23 15 -54 56 c-29 31 -71 80 -91 109 -21 29 -53 64 -72 79 -27 20
-34 33 -34 59 0 30 -5 36 -48 58 -26 13 -82 32 -125 42 -72 17 -77 20 -77 44
0 23 -6 27 -60 39 -38 9 -85 11 -132 7 -40 -4 -125 -9 -188 -12 -107 -6 -116
-5 -133 14 -21 23 -48 172 -66 367 -7 66 -17 165 -24 220 -6 55 -12 201 -11
325 0 236 -1 229 60 490 8 36 52 140 99 235 93 188 100 208 145 380 34 130 34
175 3 320 -14 63 -28 93 -100 213 -14 22 -23 53 -23 79 0 55 -24 165 -51 239
-23 62 -83 164 -97 164 -4 0 -24 -17 -44 -37z m-70 -2710 c12 -43 33 -119 47
-170 16 -57 25 -110 23 -140 l-3 -48 -85 -22 c-47 -12 -109 -22 -137 -22 l-53
-1 0 54 c0 37 8 72 26 111 36 78 53 157 54 243 l0 72 53 0 53 0 22 -77z"/>
</g>
</svg>
